<svg version="1.1" id="Layer_1" xmlns="http://www.w3.org/2000/svg" xmlns:xlink="http://www.w3.org/1999/xlink" x="0px" y="0px"
	 width="100%" viewBox="0 0 500 154" enable-background="new 0 0 500 154" xml:space="preserve">

<path fill="#030303" opacity="1.000000" stroke="none" 
	d="
M218.756638,123.985565 
	C218.756638,128.451691 218.756638,132.420471 218.756638,136.694916 
	C205.388046,136.694916 192.323700,136.694916 178.731461,136.694916 
	C179.642487,125.755104 180.555695,114.789322 181.468887,103.823532 
	C180.955124,103.729973 180.441360,103.636414 179.927597,103.542847 
	C179.601196,104.429260 179.274170,105.315445 178.948441,106.202103 
	C176.186615,113.720131 174.372452,121.782127 170.441910,128.629211 
	C164.505066,138.971329 154.252365,141.034500 143.150604,138.874130 
	C132.807861,136.861481 126.686432,130.147766 124.129425,120.157387 
	C123.191940,116.494583 122.407059,112.673935 122.374489,108.918167 
	C122.202911,89.135895 122.294106,69.351341 122.294106,49.281990 
	C135.981323,49.281990 149.543335,49.281990 163.223312,49.281990 
	C162.105850,62.000092 160.856232,74.630409 159.960739,87.285782 
	C159.651306,91.658760 161.221329,95.435646 165.895157,97.153870 
	C172.879303,99.721443 180.112106,95.530350 180.895508,87.492393 
	C181.516876,81.116783 180.831482,74.592957 180.475006,68.148857 
	C180.129333,61.900337 179.463211,55.669544 178.918488,49.201454 
	C192.282272,49.201454 205.212051,49.201454 218.756638,49.201454 
	C218.756638,73.991150 218.756638,98.739685 218.756638,123.985565 
z"/>
<path fill="#020202" opacity="1.000000" stroke="none" 
	d="
M434.191681,47.829792 
	C455.446136,51.394840 469.847107,68.354698 470.052948,89.384193 
	C470.133148,97.574852 469.851868,105.646790 466.558594,113.282631 
	C460.722809,126.813446 449.958069,134.520782 436.038177,137.764252 
	C424.287354,140.502289 412.382904,140.465042 400.668518,136.996155 
	C385.156342,132.402695 374.975403,122.697365 370.912842,106.700043 
	C368.349823,96.607544 368.469299,86.610184 371.453186,76.819443 
	C376.802826,59.266060 390.346344,49.343697 408.610718,47.205078 
	C416.871887,46.237759 425.389252,47.458500 434.191681,47.829792 
M421.362305,100.001022 
	C425.242767,99.281036 429.244659,98.922562 432.948914,97.678078 
	C434.628265,97.113876 436.840698,94.751060 436.787170,93.277710 
	C436.721375,91.467255 434.902863,88.757454 433.212891,88.129547 
	C424.088196,84.739273 414.741211,84.635063 405.692871,88.449097 
	C404.074341,89.131340 402.194611,91.715446 402.308899,93.285004 
	C402.425537,94.886650 404.614838,97.206024 406.310089,97.656830 
	C410.905090,98.878723 415.719299,99.276497 421.362305,100.001022 
z"/>
<path fill="#030303" opacity="1.000000" stroke="none" 
	d="
M104.458252,88.425468 
	C94.942787,86.345238 85.788322,84.963860 76.470261,86.911682 
	C75.661987,87.080635 74.617752,86.818733 74.034325,87.241570 
	C71.790009,88.868080 68.233261,90.423164 67.849808,92.500336 
	C67.144005,96.323700 71.100212,97.433945 74.196770,97.960945 
	C88.464630,100.389153 102.499352,99.592880 116.429024,94.122086 
	C116.429024,107.570312 116.429024,120.775566 116.429024,135.148849 
	C111.002495,136.192688 105.178635,137.626938 99.268105,138.388824 
	C83.833328,140.378418 68.524597,140.756775 54.230526,132.969391 
	C39.858555,125.139542 33.034458,112.670403 32.012772,96.697281 
	C31.400259,87.121132 32.518379,77.846367 37.310833,69.284401 
	C44.475178,56.484921 55.874165,49.737389 69.860886,47.299976 
	C84.612053,44.729343 99.224304,46.566799 113.984436,50.052967 
	C113.214111,63.443245 112.451721,76.695564 111.674477,90.205971 
	C109.309402,89.656982 107.075523,89.138443 104.458252,88.425468 
z"/>
<path fill="#030303" opacity="1.000000" stroke="none" 
	d="
M226.312592,64.006226 
	C226.312592,58.870708 226.312592,54.233894 226.312592,49.298927 
	C239.207031,49.298927 251.780792,49.298927 265.158386,49.298927 
	C264.118195,60.103695 263.069794,70.993378 262.021423,81.883064 
	C262.511627,82.071274 263.001801,82.259483 263.492004,82.447693 
	C263.995544,81.399437 264.810150,80.391762 264.953094,79.296463 
	C266.018982,71.127213 268.640198,63.545830 273.330139,56.755432 
	C280.365173,46.569622 294.191101,43.148323 304.596252,49.097153 
	C305.992981,49.895687 307.890289,51.632694 307.842285,52.868553 
	C307.251465,68.075264 306.341431,83.269577 305.481445,99.062767 
	C296.492950,89.437263 286.722717,85.090317 274.388367,89.824226 
	C265.924622,93.072594 261.120392,101.864326 262.336792,110.843002 
	C263.490601,119.359863 264.076996,127.953606 264.937653,136.767059 
	C252.142975,136.767059 239.537094,136.767059 226.312592,136.767059 
	C226.312592,112.689079 226.312592,88.597000 226.312592,64.006226 
z"/>
<path fill="#040404" opacity="1.000000" stroke="none" 
	d="
M363.548859,104.000237 
	C363.536621,114.824089 363.526794,125.147934 363.500916,135.471741 
	C363.500122,135.782166 363.331299,136.092178 363.153290,136.702484 
	C351.344208,136.702484 339.454590,136.702484 326.993469,136.702484 
	C326.993469,127.033112 326.993469,117.275383 326.993469,107.517654 
	C326.993469,102.855118 326.815155,98.183456 327.053040,93.533081 
	C327.225769,90.155411 326.330994,88.619675 322.637085,88.938881 
	C319.032837,89.250351 315.380585,89.006607 311.496979,89.006607 
	C311.496979,75.579155 311.496979,62.521427 311.496979,49.228134 
	C328.767090,49.228134 345.861542,49.228134 363.548889,49.228134 
	C363.548889,67.307068 363.548889,85.403648 363.548859,104.000237 
z"/>
<path fill="#030303" opacity="1.000000" stroke="none" 
	d="
M318.999023,28.659180 
	C317.424683,12.990446 333.309113,7.258736 346.307800,9.567418 
	C359.046143,11.829860 364.359283,18.511419 363.027008,29.620434 
	C362.322998,35.490940 358.944611,39.478840 353.881714,41.706322 
	C346.369751,45.011314 338.386780,45.145073 330.666168,42.561874 
	C324.362091,40.452606 320.070465,36.021397 318.999023,28.659180 
z"/>

</svg>